<?xml version="1.0" encoding="UTF-8" standalone="no"?>
<!-- Generator: Adobe Illustrator 17.1.0, SVG Export Plug-In . SVG Version: 6.00 Build 0)  -->
<svg id="Layer_1" xmlns:rdf="http://www.w3.org/1999/02/22-rdf-syntax-ns#" xmlns="http://www.w3.org/2000/svg" version="1.1" xml:space="preserve" viewBox="0 0 254.7 251.72685" height="100%" width="100%" enable-background="new 0 0 612 792" y="0px" x="0px" xmlns:cc="http://creativecommons.org/ns#" xmlns:dc="http://purl.org/dc/elements/1.1/"><defs id="defs11">
</defs><metadata id="metadata17"><rdf:RDF><cc:Work rdf:about=""><dc:format>image/svg+xml</dc:format><dc:type rdf:resource="http://purl.org/dc/dcmitype/StillImage"/><dc:title/></cc:Work></rdf:RDF></metadata>
<g id="g2994" fill="#78bce8"><path id="path5" d="m219.02,30.723c0,16.848-13.875,30.723-30.723,30.723s-30.723-13.875-30.723-30.723,13.875-30.723,30.723-30.723,30.723,13.875,30.723,30.723z"/><path id="path7" d="m124.87,193.25v-7.9284c0-5.9463,2.9732-11.893,7.9284-15.857v-25.767h-28.74c-10.902,0-19.821-8.9194-19.821-19.821,0-1.9821,0.99105-2.9732,0.99105-4.9552v-6.9374h2.9732c3.9642-4.9552,8.9195-7.9284,15.857-7.9284h25.767c0-0.99105,0.99106-1.9821,0.99106-2.9732v-70.347c0-5.9463-4.9553-10.902-10.902-10.902h-88.206c-5.9463,0-9.9105,4.9553-9.9105,10.902v70.365c0,5.9463,3.9642,10.902,9.9105,10.902h35.678v8.9195h-11.893c-4.9553,0-9.9105,3.9642-9.9105,10.902h-40.633c-2.9732,0-4.9553,1.9821-4.9553,3.9642v10.902c0,2.9732,1.9821,3.9642,4.9553,3.9642h13.875v100.1h115.95v-45.582c0.99105,1.9821-9.9105-0.99105-9.9105-11.893zm-77.3-97.118c-5.9463,0-10.902-3.9642-10.902-9.9105v-40.634c0-5.9463,4.9553-9.9105,10.902-9.9105h57.481c5.9463,0,10.902,4.9553,10.902,9.9105v40.633c0,5.9463-4.9553,9.9105-10.902,9.9105h-57.48z"/><path id="path9" d="M208.12,66.4h-40.632c-24.776,0-26.758,24.776-26.758,24.776s-2.9732,16.848-5.9463,18.83c-0.99105,0.99105-1.9821,0.99105-2.9732,0.99105h-27.749c-6.9374,0-11.893,4.9553-11.893,11.893,0,6.9374,4.9553,11.893,11.893,11.893h36.669v28.74h15.857v-64.415c0-12.884,7.9284-27.749,21.803-27.749h48.561c-4.9552-2.9732-11.893-4.9553-18.83-4.9553z"/><path id="path11" d="m238.84,198.21c8.9194,0,15.857-6.9374,15.857-15.857v-81.266c0-9.9105-7.9284-17.839-17.839-17.839h-55.499c-9.9105,0-17.839,7.9284-17.839,17.839v72.347h-17.839c-6.9374,0-12.884,4.9552-12.884,11.893v4.9552c0,4.9552,3.9642,8.9194,8.9194,8.9194h37.66v10.902h-5.9463s-14.866-0.93362-14.866,13.875v19.821c0,4.9552,2.9732,7.9284,7.9284,7.9284s7.9284-3.9642,7.9284-7.9284v-18.83h27.749v18.83c0,4.9552,3.9642,7.9284,8.9194,7.9284,4.9553,0,8.9195-3.9642,8.9195-7.9284v-19.821c0-14.866-15.857-13.875-15.857-13.875h-5.9463v-11.893z"/></g>
</svg>
