<?xml version="1.0" encoding="UTF-8" standalone="no"?>
<!-- Generator: Adobe Illustrator 17.1.0, SVG Export Plug-In . SVG Version: 6.00 Build 0)  -->
<svg id="Layer_1" xmlns:rdf="http://www.w3.org/1999/02/22-rdf-syntax-ns#" xmlns="http://www.w3.org/2000/svg" enable-background="new 0 0 612 792" xml:space="preserve" viewBox="0 0 168.06046 180.9" height="100%" width="100%" version="1.1" y="0px" x="0px" xmlns:cc="http://creativecommons.org/ns#" xmlns:dc="http://purl.org/dc/elements/1.1/"><metadata id="metadata11"><rdf:RDF><cc:Work rdf:about=""><dc:format>image/svg+xml</dc:format><dc:type rdf:resource="http://purl.org/dc/dcmitype/StillImage"/><dc:title/></cc:Work></rdf:RDF></metadata>
<g id="g3" fill="#1f4a83" transform="matrix(2.2927757,0,0,2.2927757,-616.52739,-818.52092)">
	<path id="path5" fill="#1f4a83" d="m342.2,393.2c0-1.1-0.1-2.1-0.2-3.2-0.3-3.5-1.2-6.8-2.4-10-0.1-0.2-0.2-0.5-0.3-0.7-1.7-3.9-4-7.5-6.9-10.6l-0.6-0.6c-0.5-0.6-1.1-1.1-1.7-1.6-6.5-5.9-15.1-9.5-24.6-9.5-9.6,0-18.3,3.7-24.8,9.7-1.5,1.4-2.9,2.9-4.2,4.6-4.8,6.2-7.6,13.9-7.6,22.3,0,19.8,15.8,36,35.5,36.6v2.1h-3.1v1.2h-11.9v2.4h32.2v-2.4h-9.6v-1.2h-3.1v-2.3c12.8-1.2,23.6-8.9,29.2-19.8,1.3-2.5,2.3-5.2,3-8.1,0.2-0.7,0.3-1.4,0.4-2.2,0.4-2.1,0.6-4.2,0.6-6.4,0.1,0,0.1-0.2,0.1-0.3zm-6.9-14.6,0.2-0.2c0.3,0.5,0.5,1.1,0.8,1.6h-0.3l-0.7,0.1v-1.5zm-5.3-6.4,0-1.6c0.6,0.6,1.1,1.2,1.7,1.9l-0.7,1h-2.3l-0.1-0.5,1.4-0.8zm-44.1-4.1,0.7-0.1,0.1-0.2h1.2v0.5l-0.3,0.5h-1.7v-0.7zm1.9,2.3-1.7,0.1-0.3-0.4,1.2-0.3s0.7-0.1,0.8-0.1c0.1-0.1,0,0.7,0,0.7zm49.8,13.9h-2.7l-1.6-1.2-1.7,0.2v1h-0.6l-0.6-0.4-3-0.8v-1.9l-3.8,0.3-1.2,0.6h-1.4l-0.7-0.1-1.8,1v1.9l-3.7,2.7,0.3,1.1h0.8l-0.2,1.1-0.5,0.2v2.8l3.2,3.7h1.4l0.1-0.2h2.5l0.7-0.7h1.4l0.8,0.8,2.1,0.2-0.3,2.8,2.4,4.2-1.2,2.4,0.1,1.1,1,1v2.7l1.3,1.7v2.2h1.1c-6.2,7.6-15.5,12.4-26,12.4-18.5,0-33.6-15.1-33.6-33.6,0-4.7,1-9.1,2.7-13.1v1.9l1.4,0.7v2.7l1.3,2.3,1.1,0.2,0.1-0.8-1.3-2-0.3-1.9h0.8l0.3,2,1.9,2.7-0.5,0.9,1.2,1.8,2.9,0.7v-0.5l1.2,0.2-0.1,0.8,0.9,0.2,1.4,0.4,2,2.3,2.6,0.2,0.3,2.1-1.8,1.2-0.1,1.9-0.3,1.1,2.5,3.2,0.2,1.1s0.9,0.3,1,0.3,2.1,1.5,2.1,1.5v5.7l0.7,0.2-0.5,2.7,1.2,1.6-0.2,2.6,1.6,2.7,2,1.7h2l0.2-0.6-1.5-1.2,0.1-0.6,0.3-0.8,0.1-0.8h-1l-0.7-0.8,0.8-0.8,0.1-0.6-0.9-0.3,0.1-0.6,1.3-0.2,2-1,0.7-1.2,2.1-2.7-0.5-2.1,0.6-1.1,1.9,0.1,1.3-1,0.4-4,1.4-1.8,0.2-1.2-1.3-0.4-0.9-1.4h-3l-2.3-0.9-0.1-1.7-0.8-1.4h-2.1l-1.2-1.9-1.1-0.5-0.1,0.6-2,0.1-0.7-1-2.1-0.4-1.7,2-2.7-0.5-0.2-3-2-0.3,0.8-1.5-0.2-0.9-2.6,1.7-1.6-0.2-0.6-1.3,0.4-1.3,0.9-1.6,2.1-1h4v1.2l1.4,0.7-0.1-2.1,1-1,2.1-1.4,0.1-1,2.1-2.1,2.2-1.2-0.2-0.2,1.5-1.4,0.5,0.1,0.2,0.3,0.6-0.6,0.1-0.1-0.6-0.1-0.6-0.2v-0.6l0.3-0.3h0.7l0.3,0.1,0.3,0.6,0.4-0.1v-0.1h0.1l1-0.2,0.1-0.5,0.6,0.1v0.5l-0.5,0.4,0.1,0.6,1.9,0.6h0.4v-0.8l-1.5-0.7-0.1-0.4,1.2-0.4,0.1-1.2-1.3-0.8-0.1-2-1.8,0.9h-0.6l0.2-1.5-2.4-0.6-1,0.8v2.3l-1.8,0.6-0.7,1.5-0.8,0.1v-1.9l-1.7-0.2-0.8-0.5-0.3-1.2,3-1.8,1.5-0.4,0.1,1h0.8l0.1-0.5,0.9-0.1v-0.2l-0.4-0.2-0.1-0.5,1.1-0.1,0.6-0.7,0.2-0.2,2.2-0.3,1,0.8-2.6,1.4,3.3,0.8,0.4-1.1h1.4l0.5-0.9-1-0.3v-1.2l-3.2-1.4-2.2,0.3-1.2,0.6,0.1,1.6-1.3-0.2-0.2-0.9,1.2-1.1-2.2-0.1-0.6,0.2-0.3,0.8,0.8,0.1-0.2,0.8-1.4,0.1-0.2,0.6-2.1,0.1s-0.1-1.2-0.1-1.2h1.6l1.2-1.2-0.7-0.3-0.9,0.9-1.5-0.1-0.9-1.2h-1.9l-2,1.5h1.8l0.2,0.5-0.5,0.4,2,0.1,0.3,0.7-2.3-0.1-0.1-0.6-1.4-0.3-0.8-0.4h-1.7c5.5-4,12.4-6.4,19.7-6.4,8.5,0,16.2,3.2,22.2,8.4l-0.4,0.7-1.5,0.6-0.7,0.7,0.1,0.8,0.8,0.1,0.5,1.2,1.4-0.6,0.2,1.6h-0.4l-1.1-0.2-1.3,0.2-1.2,1.7-1.7,0.3-0.3,1.5,0.7,0.2-0.2,1-1.7-0.3-1.6,0.3-0.3,0.9,0.3,1.8,0.9,0.4h1.6l1-0.1,0.3-0.8,1.6-2.1,1.1,0.2,1.1-1,0.2,0.8,2.6,1.8-0.3,0.4-1.2-0.1,0.5,0.6,0.7,0.2,0.9-0.4v-1l0.4-0.2-0.3-0.3-1.7-1-0.5-1.3h1.4l0.5,0.5,1.3,1.1v1.3l1.3,1.4,0.5-1.9,0.9-0.5,0.2,1.6,0.9,1h1.8c0.3,0.9,0.6,1.8,0.9,2.7l0.2,0.1zm-48.6-10.7,0.9-0.4,0.8,0.2-0.3,1.1-0.9,0.3-0.5-1.2zm4.6,2.5v0.7h-2l-0.8-0.2,0.2-0.5,1-0.4h1.3v0.4h0.3zm0.9,1v0.7l-0.5,0.3-0.6,0.1v-1.1h1.1zm-0.5-0.3v-0.8l0.7,0.6-0.7,0.2zm0.3,1.6v0.7l-0.5,0.5h-1.1l0.2-0.7h0.5l0.1-0.3,0.8-0.2zm-2.7-1.3h1.1l-1.4,2-0.6-0.3,0.1-0.8,0.8-0.9zm4.6,1.1v0.7h-1.1l-0.3-0.4v-0.6h0.1l1.3,0.3zm-1-0.9,0.3-0.3,0.5,0.3-0.4,0.3-0.4-0.3z"/>
</g>
</svg>
