<?xml version="1.0" encoding="UTF-8" standalone="no"?>
<!-- Generator: Adobe Illustrator 17.1.0, SVG Export Plug-In . SVG Version: 6.00 Build 0)  -->
<svg id="Layer_1" xmlns:rdf="http://www.w3.org/1999/02/22-rdf-syntax-ns#" xmlns="http://www.w3.org/2000/svg" enable-background="new 0 0 612 792" xml:space="preserve" viewBox="0 0 127.3224 131.72601" height="100%" width="100%" version="1.1" y="0px" x="0px" xmlns:cc="http://creativecommons.org/ns#" xmlns:dc="http://purl.org/dc/elements/1.1/"><metadata id="metadata13"><rdf:RDF><cc:Work rdf:about=""><dc:format>image/svg+xml</dc:format><dc:type rdf:resource="http://purl.org/dc/dcmitype/StillImage"/><dc:title/></cc:Work></rdf:RDF></metadata>
<g id="g3" fill="#1f4a83" transform="matrix(7.0343865,0,0,7.0343865,-2089.2128,-2722.3076)">
	<path id="path5" d="m313.9,388.5h-7.1c0.1-0.1,0.1-0.3,0.1-0.5,0-0.6-0.5-1-1-1-0.6,0-1,0.5-1,1,0,0.2,0.1,0.3,0.1,0.5h-7c-0.5,0-1,0.4-1,1v10.5c0,0.5,0.4,1,1,1h5.8l-1.1,4c-0.1,0.3,0.1,0.5,0.4,0.6l0.4,0.1c0.3,0.1,0.6-0.1,0.7-0.4l1.2-4.3h1.3l1.2,4.3c0.1,0.3,0.4,0.5,0.7,0.4l0.4-0.1c0.3,0,0.4-0.3,0.4-0.6l-1.1-4h5.8c0.5,0,1-0.4,1-1v-10.5c-0.2-0.5-0.6-1-1.2-1zm-0.8,10.6h-14.3v-8.9h14.3v8.9z"/>
	<path id="path7" d="m300.5,397.6c0.4,0,0.7-0.3,0.7-0.7v-0.2c0.9-0.8,2.6-2.1,3.4-2.7,0.1,0.1,0.3,0.1,0.4,0.1s0.3,0,0.4-0.1c0.5,0.4,1.3,1.1,1.9,1.6v0.1c0,0.4,0.3,0.7,0.7,0.7s0.7-0.3,0.7-0.7v-0.2l1.9-1.7c0.1,0.1,0.2,0.1,0.3,0.1,0.4,0,0.7-0.3,0.7-0.7s-0.3-0.7-0.7-0.7-0.7,0.3-0.7,0.7c0,0.1,0,0.2,0.1,0.3-0.5,0.5-1.4,1.2-1.9,1.7-0.1-0.1-0.3-0.1-0.4-0.1-0.2,0-0.3,0.1-0.5,0.2-0.5-0.4-1.3-1.1-1.8-1.6,0-0.1,0.1-0.2,0.1-0.3,0-0.4-0.3-0.7-0.7-0.7s-0.7,0.3-0.7,0.7v0.3l-3.4,2.6c-0.1-0.1-0.3-0.1-0.4-0.1-0.4,0-0.7,0.3-0.7,0.7-0.1,0.4,0.2,0.7,0.6,0.7z"/>
</g>
</svg>
