<?xml version="1.0" encoding="UTF-8" standalone="no"?>
<!-- Generator: Adobe Illustrator 19.0.0, SVG Export Plug-In . SVG Version: 6.00 Build 0)  -->

<svg
   xmlns:dc="http://purl.org/dc/elements/1.1/"
   xmlns:cc="http://creativecommons.org/ns#"
   xmlns:rdf="http://www.w3.org/1999/02/22-rdf-syntax-ns#"
   xmlns:svg="http://www.w3.org/2000/svg"
   xmlns="http://www.w3.org/2000/svg"
   xmlns:sodipodi="http://sodipodi.sourceforge.net/DTD/sodipodi-0.dtd"
   xmlns:inkscape="http://www.inkscape.org/namespaces/inkscape"
   version="1.1"
   id="Capa_1"
   x="0px"
   y="0px"
   viewBox="0 0 502.632 502.632"
   style="enable-background:new 0 0 502.632 502.632;"
   xml:space="preserve"
   width="512px"
   height="512px"
   inkscape:version="0.48.5 r10040"
   sodipodi:docname="java.svg"><metadata
   id="metadata87"><rdf:RDF><cc:Work
       rdf:about=""><dc:format>image/svg+xml</dc:format><dc:type
         rdf:resource="http://purl.org/dc/dcmitype/StillImage" /></cc:Work></rdf:RDF></metadata><defs
   id="defs85" /><sodipodi:namedview
   pagecolor="#ffffff"
   bordercolor="#666666"
   borderopacity="1"
   objecttolerance="10"
   gridtolerance="10"
   guidetolerance="10"
   inkscape:pageopacity="0"
   inkscape:pageshadow="2"
   inkscape:window-width="989"
   inkscape:window-height="627"
   id="namedview83"
   showgrid="false"
   inkscape:zoom="0.4609375"
   inkscape:cx="256"
   inkscape:cy="256"
   inkscape:window-x="0"
   inkscape:window-y="0"
   inkscape:window-maximized="0"
   inkscape:current-layer="Capa_1" />
<g
   id="g3"
   style="fill:#1f4a8f;fill-opacity:0.94117647">
	<g
   id="g5"
   style="fill:#1f4a8f;fill-opacity:0.94117647">
		<path
   d="M240.864,269.894c0,0-28.02-53.992-26.985-93.445c0.755-28.193,64.324-56.062,89.281-96.529    C328.074,39.431,300.054,0,300.054,0s6.234,29.077-10.376,59.147c-16.609,30.113-77.914,47.779-101.749,99.679    S240.864,269.894,240.864,269.894z"
   fill="#FC7E95"
   id="path7"
   style="fill:#1f4a8f;fill-opacity:0.94117647" />
		<path
   d="M345.741,105.869c0,0-95.494,36.347-95.494,77.849c0,41.545,25.928,55.027,30.113,68.509    c4.142,13.525-7.269,36.347-7.269,36.347s37.361-25.95,31.105-56.062c-6.234-30.113-35.29-39.475-18.659-69.544    C296.646,142.799,345.741,105.869,345.741,105.869z"
   fill="#FC7E95"
   id="path9"
   style="fill:#1f4a8f;fill-opacity:0.94117647" />
		<path
   d="M230.51,324.748c88.246-3.149,120.43-30.997,120.43-30.997    c-57.076,15.553-208.654,14.539-209.711,3.128c-1.014-11.411,46.701-20.773,46.701-20.773s-74.721,0-80.955,18.68    C100.74,313.467,142.328,327.833,230.51,324.748z"
   fill="#FC7E95"
   id="path11"
   style="fill:#1f4a8f;fill-opacity:0.94117647" />
		<path
   d="M358.187,368.494c0,0,86.369-18.421,77.827-65.338c-10.354-57.119-70.58-24.936-70.58-24.936    s42.602,0,46.722,25.928C416.32,330.098,358.187,368.494,358.187,368.494z"
   fill="#FC7E95"
   id="path13"
   style="fill:#1f4a8f;fill-opacity:0.94117647" />
		<path
   d="M315.628,343.601c0,0-21.765,5.716-54.013,9.34c-43.228,4.853-95.494,1.014-99.657-6.256    c-4.098-7.269,7.269-11.411,7.269-11.411c-51.921,12.468-23.512,34.233,37.339,38.418c52.158,3.559,129.791-15.574,129.791-15.574    L315.628,343.601z"
   fill="#FC7E95"
   id="path15"
   style="fill:#1f4a8f;fill-opacity:0.94117647" />
		<path
   d="M181.738,388.943c0,0-23.555,0.669-24.936,13.137c-1.359,12.382,14.496,23.512,72.65,26.964    c58.133,3.451,98.988-15.898,98.988-15.898l-26.295-15.962c0,0-16.631,3.494-42.236,6.946    c-25.626,3.473-78.173-2.783-80.243-7.593C177.553,391.682,181.738,388.943,181.738,388.943z"
   fill="#FC7E95"
   id="path17"
   style="fill:#1f4a8f;fill-opacity:0.94117647" />
		<path
   d="M407.994,445.005c8.995-9.707-2.783-17.321-2.783-17.321s4.142,4.853-1.337,10.376    c-5.544,5.522-56.084,19.349-137.061,23.512c-80.955,4.163-168.856-7.615-171.639-17.99    c-2.696-10.376,45.018-18.659,45.018-18.659c-5.522,0.69-71.96,2.071-74.074,20.082c-2.071,17.968,29.056,32.507,153.67,32.507    C344.339,477.491,399.042,454.647,407.994,445.005z"
   fill="#FC7E95"
   id="path19"
   style="fill:#1f4a8f;fill-opacity:0.94117647" />
		<path
   d="M359.568,485.817c-54.682,11.044-220.734,4.077-220.734,4.077s107.919,25.626,231.109,4.185    c58.888-10.268,62.318-38.763,62.318-38.763S414.25,474.708,359.568,485.817z"
   fill="#FC7E95"
   id="path21"
   style="fill:#1f4a8f;fill-opacity:0.94117647" />
	</g>
	<g
   id="g23"
   style="fill:#1f4a8f;fill-opacity:0.94117647">
	</g>
	<g
   id="g25"
   style="fill:#1f4a8f;fill-opacity:0.94117647">
	</g>
	<g
   id="g27"
   style="fill:#1f4a8f;fill-opacity:0.94117647">
	</g>
	<g
   id="g29"
   style="fill:#1f4a8f;fill-opacity:0.94117647">
	</g>
	<g
   id="g31"
   style="fill:#1f4a8f;fill-opacity:0.94117647">
	</g>
	<g
   id="g33"
   style="fill:#1f4a8f;fill-opacity:0.94117647">
	</g>
	<g
   id="g35"
   style="fill:#1f4a8f;fill-opacity:0.94117647">
	</g>
	<g
   id="g37"
   style="fill:#1f4a8f;fill-opacity:0.94117647">
	</g>
	<g
   id="g39"
   style="fill:#1f4a8f;fill-opacity:0.94117647">
	</g>
	<g
   id="g41"
   style="fill:#1f4a8f;fill-opacity:0.94117647">
	</g>
	<g
   id="g43"
   style="fill:#1f4a8f;fill-opacity:0.94117647">
	</g>
	<g
   id="g45"
   style="fill:#1f4a8f;fill-opacity:0.94117647">
	</g>
	<g
   id="g47"
   style="fill:#1f4a8f;fill-opacity:0.94117647">
	</g>
	<g
   id="g49"
   style="fill:#1f4a8f;fill-opacity:0.94117647">
	</g>
	<g
   id="g51"
   style="fill:#1f4a8f;fill-opacity:0.94117647">
	</g>
</g>
<g
   id="g53">
</g>
<g
   id="g55">
</g>
<g
   id="g57">
</g>
<g
   id="g59">
</g>
<g
   id="g61">
</g>
<g
   id="g63">
</g>
<g
   id="g65">
</g>
<g
   id="g67">
</g>
<g
   id="g69">
</g>
<g
   id="g71">
</g>
<g
   id="g73">
</g>
<g
   id="g75">
</g>
<g
   id="g77">
</g>
<g
   id="g79">
</g>
<g
   id="g81">
</g>
</svg>