<?xml version="1.0" encoding="UTF-8" standalone="no"?>
<!-- Generator: Adobe Illustrator 17.1.0, SVG Export Plug-In . SVG Version: 6.00 Build 0)  -->
<svg id="Layer_1" xmlns:rdf="http://www.w3.org/1999/02/22-rdf-syntax-ns#" xmlns="http://www.w3.org/2000/svg" enable-background="new 0 0 612 792" xml:space="preserve" viewBox="0 0 227.8 251.40427" height="100%" width="100%" version="1.1" y="0px" x="0px" xmlns:cc="http://creativecommons.org/ns#" xmlns:dc="http://purl.org/dc/elements/1.1/"><metadata id="metadata11"><rdf:RDF><cc:Work rdf:about=""><dc:format>image/svg+xml</dc:format><dc:type rdf:resource="http://purl.org/dc/dcmitype/StillImage"/><dc:title/></cc:Work></rdf:RDF></metadata>
<g id="g3" fill="#ed1e6b" transform="matrix(3.7467105,0,0,3.7467105,-1030.3454,-1360.0559)">
	<path id="path5" fill="#ed1e6b" d="m313.4,421.4c0,0.9-0.7,1.6-1.6,1.6h-12.8c-0.9,0-1.6-0.7-1.6-1.6s0.7-1.6,1.6-1.6h12.8c0.9,0,1.6,0.7,1.6,1.6zm-1.6,2.4h-12.8c-1.1,0-1.9,1-1.5,2.1,0.2,0.7,0.9,1.1,1.6,1.1,0.9,0,1.8,0.5,2.2,1.3,0.6,1.1,1.7,1.8,2.9,1.8h2.3c1.2,0,2.4-0.7,2.9-1.8,0.4-0.8,1.3-1.3,2.2-1.3,0.7,0,1.4-0.4,1.6-1.1,0.5-1.1-0.3-2.1-1.4-2.1zm-6.4-51.2c0.9,0,1.6-0.7,1.6-1.6v-6.4c0-0.9-0.7-1.6-1.6-1.6s-1.6,0.7-1.6,1.6v6.4c0,0.9,0.7,1.6,1.6,1.6zm-17,6.1c0.3,0.3,0.7,0.5,1.1,0.5s0.8-0.2,1.1-0.5c0.6-0.6,0.6-1.6,0-2.3l-4.5-4.5c-0.6-0.6-1.6-0.6-2.3,0-0.6,0.6-0.6,1.6,0,2.3l4.6,4.5zm-3.8,14.7c0-0.9-0.7-1.6-1.6-1.6h-6.4c-0.9,0-1.6,0.7-1.6,1.6s0.7,1.6,1.6,1.6h6.4c0.9,0,1.6-0.7,1.6-1.6zm3.8,14.7-4.5,4.5c-0.6,0.6-0.6,1.6,0,2.3,0.3,0.3,0.7,0.5,1.1,0.5s0.8-0.2,1.1-0.5l4.5-4.5c0.6-0.6,0.6-1.6,0-2.3-0.5-0.6-1.5-0.6-2.2,0zm34,0c-0.6-0.6-1.6-0.6-2.3,0-0.6,0.6-0.6,1.6,0,2.3l4.5,4.5c0.3,0.3,0.7,0.5,1.1,0.5s0.8-0.2,1.1-0.5c0.6-0.6,0.6-1.6,0-2.3l-4.4-4.5zm11.8-16.3h-6.4c-0.9,0-1.6,0.7-1.6,1.6s0.7,1.6,1.6,1.6h6.4c0.9,0,1.6-0.7,1.6-1.6s-0.7-1.6-1.6-1.6zm-13-12.6c0.4,0,0.8-0.2,1.1-0.5l4.5-4.5c0.6-0.6,0.6-1.6,0-2.3-0.6-0.6-1.6-0.6-2.3,0l-4.5,4.5c-0.6,0.6-0.6,1.6,0,2.3,0.4,0.3,0.8,0.5,1.2,0.5zm-7.8,38.2c0,0.9-0.7,1.6-1.6,1.6h-12.8c-0.9,0-1.6-0.7-1.6-1.6s0.7-1.5,1.5-1.6c-1-9-10.3-11-10.3-21.6,0-9.3,7.5-16.8,16.8-16.8s16.8,7.5,16.8,16.8c0,10.6-9.3,12.6-10.3,21.6,0.8,0.1,1.5,0.7,1.5,1.6zm-11.7-35.5c-0.2-0.6-0.9-0.9-1.6-0.7-4.1,1.7-7.2,5.2-8.3,9.5-0.2,0.6,0.2,1.3,0.9,1.5h0.3c0.5,0,1-0.4,1.2-0.9,0.9-3.5,3.5-6.5,6.9-7.8,0.6-0.3,0.9-1,0.6-1.6z"/>
</g>
</svg>
