<?xml version="1.0" encoding="UTF-8" standalone="no"?>
<!-- Created with Inkscape (http://www.inkscape.org/) -->

<svg
   xmlns:dc="http://purl.org/dc/elements/1.1/"
   xmlns:cc="http://creativecommons.org/ns#"
   xmlns:rdf="http://www.w3.org/1999/02/22-rdf-syntax-ns#"
   xmlns:svg="http://www.w3.org/2000/svg"
   xmlns="http://www.w3.org/2000/svg"
   xmlns:sodipodi="http://sodipodi.sourceforge.net/DTD/sodipodi-0.dtd"
   xmlns:inkscape="http://www.inkscape.org/namespaces/inkscape"
   id="svg2"
   version="1.1"
   inkscape:version="0.48.5 r10040"
   width="738.56561"
   height="690.56201"
   sodipodi:docname="News_NAV_2015_11.png">
  <metadata
     id="metadata8">
    <rdf:RDF>
      <cc:Work
         rdf:about="">
        <dc:format>image/svg+xml</dc:format>
        <dc:type
           rdf:resource="http://purl.org/dc/dcmitype/StillImage" />
        <dc:title></dc:title>
      </cc:Work>
    </rdf:RDF>
  </metadata>
  <defs
     id="defs6" />
  <sodipodi:namedview
     pagecolor="#ffffff"
     bordercolor="#666666"
     borderopacity="1"
     objecttolerance="10"
     gridtolerance="10"
     guidetolerance="10"
     inkscape:pageopacity="0"
     inkscape:pageshadow="2"
     inkscape:window-width="1366"
     inkscape:window-height="716"
     id="namedview4"
     showgrid="false"
     fit-margin-top="10"
     fit-margin-left="10"
     fit-margin-right="10"
     fit-margin-bottom="10"
     inkscape:zoom="0.417193"
     inkscape:cx="241.66357"
     inkscape:cy="282.47702"
     inkscape:window-x="-8"
     inkscape:window-y="-8"
     inkscape:window-maximized="1"
     inkscape:current-layer="svg2" />
  <path
     style="fill:#78bcef;fill-opacity:0.94117647;fill-rule:evenodd;stroke:none"
     d="m 10.009645,652.96273 0.1079,-24.57627 16.94189,-18.64407 C 106.65387,522.151 168.37448,437.45894 222.22016,341.94578 c 19.26106,-34.16585 55.4782,-105.83199 55.4782,-109.77974 0,-1.04463 3.74672,-9.94951 8.32604,-19.78861 20.17603,-43.35011 44.63733,-116.080632 56.18081,-167.041812 4.22315,-18.64407 8.10149,-34.41895 8.61847,-35.05528 0.51702,-0.6363303 4.10583,-0.15218 7.97516,1.07589 l 7.03511,2.23286 0,262.418852 0,262.41886 -7.62711,1.52929 c -4.19492,0.84112 -19.83051,3.25841 -34.74577,5.3718 -64.77332,9.17783 -135.62051,30.27843 -194.91465,58.05199 -50.097375,23.46577 -110.957675,64.0101 -106.619895,71.02875 1.06407,1.72173 -1.20621,3.13037 -5.04505,3.13037 -6.41451,0 -6.9709801,-1.99013 -6.87183,-24.57627 z"
     id="path3787"
     inkscape:connector-curvature="0" />
  <path
     style="fill:#78bcef;fill-opacity:0.94117647;fill-rule:evenodd;stroke:none"
     d="m 70.918705,641.97981 c 0,-3.23532 59.788565,-31.55779 92.093455,-43.62566 57.72233,-21.56284 118.0152,-34.87803 190.95739,-42.17135 l 23.72881,-2.37261 0.90961,-80.8478 0.90961,-80.84782 22.31363,-25.58469 c 28.56718,-32.75501 63.3041,-79.87269 84.35071,-114.4146 18.87814,-30.983 62.70288,-116.63251 62.70288,-122.54427 0,-2.27524 2.87407,-3.18808 6.80292,-2.16067 6.738,1.76203 6.79457,3.9976 5.9322,234.42841 l -0.87071,232.6494 -9.39726,1.07987 c -5.1685,0.59393 -20.87467,-1.2937 -34.90261,-4.19471 -14.02796,-2.90105 -49.8125,-7.12288 -79.52122,-9.38187 -112.59648,-8.56159 -239.56716,10.55393 -333.64326,50.23021 -26.801875,11.30362 -32.366155,12.98118 -32.366155,9.75816 z"
     id="path3789"
     inkscape:connector-curvature="0" />
  <path
     style="fill:#78bcef;fill-opacity:0.94117647;fill-rule:evenodd;stroke:none"
     d="m 687.86785,673.7928 c -31.12061,-11.08454 -93.69207,-25.71312 -149.15254,-34.87034 -120.98939,-19.97688 -242.56697,-19.42302 -369.12402,1.68159 -35.62754,5.94126 -59.37663,11.38797 -125.791225,28.84949 -15.17549,3.9899 -2.80574,-3.84203 23.72881,-15.024 58.557215,-24.67661 131.173075,-44.12006 205.563835,-55.04132 67.57685,-9.92088 177.93463,-8.14251 238.50396,3.84346 21.44067,4.24285 45.08474,7.82485 52.54237,7.95997 l 13.55932,0.24576 1.69492,-120.66242 1.69491,-120.66243 50.84746,-47.48209 c 27.9661,-26.11526 58.71407,-55.85551 68.32878,-66.08955 30.05593,-31.99187 28.28139,-44.78295 28.28139,203.8547 0,194.21786 -0.55004,216.62911 -5.362,218.47562 -8.18088,3.13932 -14.99532,2.15939 -35.31597,-5.07844 z"
     id="path3791"
     inkscape:connector-curvature="0" />
</svg>
