<?xml version="1.0" encoding="UTF-8" standalone="no"?>
<!-- Generator: Adobe Illustrator 18.0.0, SVG Export Plug-In . SVG Version: 6.00 Build 0)  -->

<svg
   xmlns:dc="http://purl.org/dc/elements/1.1/"
   xmlns:cc="http://creativecommons.org/ns#"
   xmlns:rdf="http://www.w3.org/1999/02/22-rdf-syntax-ns#"
   xmlns:svg="http://www.w3.org/2000/svg"
   xmlns="http://www.w3.org/2000/svg"
   xmlns:sodipodi="http://sodipodi.sourceforge.net/DTD/sodipodi-0.dtd"
   xmlns:inkscape="http://www.inkscape.org/namespaces/inkscape"
   version="1.1"
   id="Capa_1"
   x="0px"
   y="0px"
   viewBox="0 0 477.066 477.066"
   style="enable-background:new 0 0 477.066 477.066;"
   xml:space="preserve"
   width="512px"
   height="512px"
   inkscape:version="0.48.5 r10040"
   sodipodi:docname="qaas.svg"><metadata
   id="metadata59"><rdf:RDF><cc:Work
       rdf:about=""><dc:format>image/svg+xml</dc:format><dc:type
         rdf:resource="http://purl.org/dc/dcmitype/StillImage" /></cc:Work></rdf:RDF></metadata><defs
   id="defs57" /><sodipodi:namedview
   pagecolor="#ffffff"
   bordercolor="#666666"
   borderopacity="1"
   objecttolerance="10"
   gridtolerance="10"
   guidetolerance="10"
   inkscape:pageopacity="0"
   inkscape:pageshadow="2"
   inkscape:window-width="1366"
   inkscape:window-height="716"
   id="namedview55"
   showgrid="false"
   inkscape:zoom="1.84375"
   inkscape:cx="274.81537"
   inkscape:cy="271.39032"
   inkscape:window-x="-8"
   inkscape:window-y="-8"
   inkscape:window-maximized="1"
   inkscape:current-layer="g3" />
<g
   id="g3">
	<path
   d="m 42.132,250.901 162.485,0 c 6.397,-11.165 14.116,-21.454 22.991,-30.647 l -172.377,0 c -3.463,0 -6.274,-2.811 -6.274,-6.273 l 0,-165.8 c 0,-3.464 2.811,-6.273 6.274,-6.273 l 268.342,0 c 3.462,0 6.273,2.81 6.273,6.273 l 0,151.47706 c 18.69536,10.00531 23.66035,18.25293 30.096,18.39446 l 0,-183.52252 c 0,-12.843 -10.421,-23.263 -23.263,-23.263 l -294.547,0 c -12.843,0 -23.263,10.421 -23.263,23.263 l 0,193.108 c 0,12.844 10.421,23.263 23.263,23.263 z"
   id="path5"
   inkscape:connector-curvature="0"
   style="fill:#ed1e6b"
   sodipodi:nodetypes="sccssssssccssssss" />
	<path
   d="M15.499,279.312L1.383,306.055c-1.957,3.719-1.832,8.183,0.342,11.787c2.166,3.595,6.056,5.793,10.257,5.793H184.39   c0.428-17.82,3.906-34.864,9.901-50.712H26.098C21.649,272.923,17.573,275.384,15.499,279.312z"
   fill="#ED1E6B"
   id="path7" />
	<path
   d="m 354.32835,286.54803 c -5.87567,-5.87567 -13.1626,-14.31436 -26.74981,-11.53166 -0.6732,0.14004 -1.34125,-0.24409 -1.5558,-0.89802 -1.78576,-5.43629 -5.81529,-9.32707 -11.05246,-11.05245 -0.64878,-0.21455 -1.03805,-0.8826 -0.89802,-1.5558 2.92788,-14.27004 -6.74414,-21.96616 -11.53165,-26.74982 -1.70097,-1.70097 -4.27491,0.87233 -2.57394,2.57394 l 5.00849,5.0072 c 4.83761,4.83762 6.9073,11.73079 5.53136,18.44025 -0.16059,0.77725 -0.84406,1.34638 -1.64187,1.37079 -5.90522,0.15032 -9.5018,2.64332 -13.09773,6.24053 12.58384,2.599 22.33487,12.3693 24.92872,24.92873 3.65054,-3.65053 6.09022,-7.28244 6.24054,-13.09773 0.0694,-2.69856 11.90037,-4.02053 19.81617,3.89463 l 5.00207,5.00335 c 1.70097,1.70097 4.2749,-0.87361 2.57393,-2.57394 z"
   id="path9"
   inkscape:connector-curvature="0"
   style="fill:#ed1e6b" />
	<path
   d="m 321.24936,304.48402 5.74077,5.74077 c 0.44966,0.0193 0.73872,0.0295 1.22691,0.0553 1.95085,0.0938 3.71092,1.23205 4.59481,2.97734 l 2.85272,5.64057 6.23411,6.23539 c 1.2025,-0.61924 2.00545,-2.02087 1.19222,-3.62613 -8.6436,-17.11312 -7.15718,-16.33458 -21.84154,-17.02319 z"
   id="path11"
   inkscape:connector-curvature="0"
   style="fill:#ed1e6b" />
	<path
   d="m 261.17259,336.89432 c 5.46585,2.3247 17.67198,0.54472 21.86082,-0.41368 5.4864,-1.25646 12.59925,2.7281 10.93811,8.17018 l -4.16956,13.63667 c -1.05219,3.4514 4.16442,5.04703 5.21661,1.59049 3.46168,-11.31711 8.35454,-20.1804 -0.22354,-25.89613 -0.72844,-0.4792 -0.67834,-1.55708 0.0797,-1.97076 3.00239,-1.64572 4.91213,-3.12251 6.32404,-4.24407 l -18.64965,-18.64965 -22.41453,22.41452 c -1.64573,1.65215 -1.11193,4.44514 1.03805,5.36243 z"
   id="path13"
   inkscape:connector-curvature="0"
   style="fill:#ed1e6b" />
	<path
   d="m 304.33665,287.57002 13.50113,13.50242 c -0.22354,-2.30479 -0.0694,-5.7305 -1.57635,-10.24436 -1.69519,-5.07272 -7.91517,-6.61953 -11.92478,-3.25806 z"
   id="path15"
   inkscape:connector-curvature="0"
   style="fill:#ed1e6b" />
	<path
   d="m 267.58142,245.9926 c -1.60076,-0.80809 -3.00753,-0.0103 -3.63126,1.19222 l 6.11591,6.11463 c 7.32227,3.53106 8.50422,4.04494 8.84338,8.84402 l 5.69067,5.69067 c -0.72908,-15.29267 -0.70338,-13.59235 -17.0187,-21.84154 z"
   id="path17"
   inkscape:connector-curvature="0"
   style="fill:#ed1e6b" />
	<path
   d="m 230.80179,299.28668 13.63217,-4.16956 c 5.30654,-1.61618 9.4517,5.35664 8.17533,10.93811 -0.93271,4.08991 -1.00337,6.72873 -1.66629,14.08504 -0.77854,8.66352 3.8805,11.54707 6.61439,8.81319 l 22.41453,-22.41453 -18.70875,-18.70939 c -1.08816,1.45173 -2.52898,3.35119 -4.19012,6.38442 -0.40854,0.75798 -1.48642,0.80809 -1.97076,0.0848 -2.53861,-3.84067 -7.57664,-5.83071 -12.2601,-4.39953 l -13.63602,4.17085 c -3.48674,1.06632 -1.84615,6.27394 1.59562,5.21661 z"
   id="path19"
   inkscape:connector-curvature="0"
   style="fill:#ed1e6b" />
	<path
   d="m 288.21019,271.37547 c -0.0398,0 -0.0694,-0.0398 -0.1092,-0.0398 l 13.46709,13.46644 c 3.76551,-4.47918 2.81353,-13.99061 -13.35789,-13.42662 z"
   id="path21"
   inkscape:connector-curvature="0"
   style="fill:#ed1e6b" />
	<path
   d="m 291.08411,209.05366 c -49.05,0 -88.95665,39.90665 -88.95665,88.95665 0,49.05 39.90665,88.95151 88.95665,88.95151 49.05,0 88.95151,-39.90151 88.95151,-88.95151 0,-49.05 -39.90151,-88.95665 -88.95151,-88.95665 z m 37.58772,146.18519 c -10.80321,7.11799 -23.71209,11.2927 -37.58772,11.2927 -37.78686,0 -68.52702,-30.73952 -68.52702,-68.52188 0,-13.87627 4.1747,-26.78451 11.29784,-37.58773 0.94684,-1.44659 1.97975,-2.82317 3.03194,-4.19011 l 95.9693,95.96994 c -1.3618,1.05218 -2.74288,2.0851 -4.18434,3.03708 z m 21.17221,-22.16015 c -0.89802,1.4967 -1.83073,2.9677 -2.83281,4.38925 l -95.39054,-95.39054 c 1.42219,-1.00208 2.89319,-1.93479 4.38925,-2.83281 10.2752,-6.15574 22.24495,-9.76131 35.07417,-9.76131 37.78172,0 68.52188,30.73952 68.52188,68.52702 -6.4e-4,12.82344 -3.60621,24.79319 -9.76195,35.06839 z"
   id="path23"
   style="fill:#ed1e6b"
   inkscape:connector-curvature="0" />
</g>
<g
   id="g25">
</g>
<g
   id="g27">
</g>
<g
   id="g29">
</g>
<g
   id="g31">
</g>
<g
   id="g33">
</g>
<g
   id="g35">
</g>
<g
   id="g37">
</g>
<g
   id="g39">
</g>
<g
   id="g41">
</g>
<g
   id="g43">
</g>
<g
   id="g45">
</g>
<g
   id="g47">
</g>
<g
   id="g49">
</g>
<g
   id="g51">
</g>
<g
   id="g53">
</g>
</svg>