<?xml version="1.0" encoding="UTF-8" standalone="no"?>
<!-- Generator: Adobe Illustrator 16.0.0, SVG Export Plug-In . SVG Version: 6.00 Build 0)  -->

<svg
   xmlns:dc="http://purl.org/dc/elements/1.1/"
   xmlns:cc="http://creativecommons.org/ns#"
   xmlns:rdf="http://www.w3.org/1999/02/22-rdf-syntax-ns#"
   xmlns:svg="http://www.w3.org/2000/svg"
   xmlns="http://www.w3.org/2000/svg"
   xmlns:sodipodi="http://sodipodi.sourceforge.net/DTD/sodipodi-0.dtd"
   xmlns:inkscape="http://www.inkscape.org/namespaces/inkscape"
   version="1.1"
   id="Capa_1"
   x="0px"
   y="0px"
   width="512px"
   height="512px"
   viewBox="0 0 254.823 254.823"
   style="enable-background:new 0 0 254.823 254.823;"
   xml:space="preserve"
   inkscape:version="0.48.5 r10040"
   sodipodi:docname="responsive.svg"><metadata
   id="metadata54"><rdf:RDF><cc:Work
       rdf:about=""><dc:format>image/svg+xml</dc:format><dc:type
         rdf:resource="http://purl.org/dc/dcmitype/StillImage" /></cc:Work></rdf:RDF></metadata><defs
   id="defs52" /><sodipodi:namedview
   pagecolor="#ffffff"
   bordercolor="#666666"
   borderopacity="1"
   objecttolerance="10"
   gridtolerance="10"
   guidetolerance="10"
   inkscape:pageopacity="0"
   inkscape:pageshadow="2"
   inkscape:window-width="1366"
   inkscape:window-height="716"
   id="namedview50"
   showgrid="false"
   inkscape:zoom="0.4609375"
   inkscape:cx="-420.88136"
   inkscape:cy="256"
   inkscape:window-x="-8"
   inkscape:window-y="-8"
   inkscape:window-maximized="1"
   inkscape:current-layer="Capa_1" />
<g
   id="g3"
   style="fill:#885c98;fill-opacity:1">
	<g
   id="Layer_61_5_"
   style="fill:#885c98;fill-opacity:1">
		<g
   id="g6"
   style="fill:#885c98;fill-opacity:1">
			<path
   d="M86.462,177.16h-3.651H55.665v13.625h111.482V178.08l-18.443-0.925H86.462V177.16z M102.763,185.524h-38.41v-2.545h38.41     V185.524z"
   fill="#FC7E95"
   id="path8"
   style="fill:#885c98;fill-opacity:1" />
			<path
   d="M0,232.557h49.746v-83.675H0V232.557z M25.504,228.946c-1.584,0-2.869-1.29-2.869-2.869c0-1.595,1.29-2.875,2.869-2.875     c1.582,0,2.866,1.28,2.866,2.875C28.375,227.656,27.086,228.946,25.504,228.946z M25.984,152.345c0.66,0,1.196,0.527,1.196,1.193     c0,0.665-0.541,1.203-1.196,1.203c-0.66,0-1.201-0.543-1.201-1.203C24.778,152.872,25.318,152.345,25.984,152.345z      M18.824,156.361h14.3v1.152h-14.3V156.361z M7.982,161.627l33.781-0.021v57.483c-12.921,0.076-27.375,0.127-33.781,0.076     V161.627z"
   fill="#FC7E95"
   id="path10"
   style="fill:#885c98;fill-opacity:1" />
			<polygon
   points="89.151,33.962 225.594,33.962 225.594,79.485 237.294,79.485 237.294,22.267 77.457,22.267 77.457,81.786      89.151,81.786    "
   fill="#FC7E95"
   id="polygon12"
   style="fill:#885c98;fill-opacity:1" />
			<polygon
   points="155.782,136.704 177.435,136.704 177.435,131.261 170.716,131.261 170.716,124.672 177.435,124.672      177.435,109.593 155.782,109.593    "
   fill="#FC7E95"
   id="polygon14"
   style="fill:#885c98;fill-opacity:1" />
			<path
   d="M183.579,84.823v106.881h71.244V84.823H183.579z M220.709,186.337c-1.899,0-3.433-1.544-3.433-3.434     c0-1.898,1.533-3.433,3.433-3.433s3.433,1.534,3.433,3.433C224.142,184.793,222.608,186.337,220.709,186.337z M244.524,173.977     h-50.643V95.118h50.653L244.524,173.977z"
   fill="#FC7E95"
   id="path16"
   style="fill:#885c98;fill-opacity:1" />
			<polygon
   points="30.178,98.33 139.116,98.33 139.116,163.628 55.665,163.628 55.665,173.235 148.724,173.235 148.724,88.732      20.576,88.732 20.576,143.245 30.178,143.245    "
   fill="#FC7E95"
   id="polygon18"
   style="fill:#885c98;fill-opacity:1" />
		</g>
	</g>
</g>
<g
   id="g20">
</g>
<g
   id="g22">
</g>
<g
   id="g24">
</g>
<g
   id="g26">
</g>
<g
   id="g28">
</g>
<g
   id="g30">
</g>
<g
   id="g32">
</g>
<g
   id="g34">
</g>
<g
   id="g36">
</g>
<g
   id="g38">
</g>
<g
   id="g40">
</g>
<g
   id="g42">
</g>
<g
   id="g44">
</g>
<g
   id="g46">
</g>
<g
   id="g48">
</g>
</svg>