<?xml version="1.0" encoding="UTF-8" standalone="no"?>
<!-- Generator: Adobe Illustrator 17.1.0, SVG Export Plug-In . SVG Version: 6.00 Build 0)  -->
<svg id="Layer_1" xmlns:rdf="http://www.w3.org/1999/02/22-rdf-syntax-ns#" xmlns="http://www.w3.org/2000/svg" enable-background="new 0 0 1605 3000" xml:space="preserve" viewBox="0 0 29.285524 29.497122" height="100%" width="100%" version="1.1" y="0px" x="0px" xmlns:cc="http://creativecommons.org/ns#" xmlns:dc="http://purl.org/dc/elements/1.1/"><metadata id="metadata9"><rdf:RDF><cc:Work rdf:about=""><dc:format>image/svg+xml</dc:format><dc:type rdf:resource="http://purl.org/dc/dcmitype/StillImage"/><dc:title/></cc:Work></rdf:RDF></metadata>
<path id="path246" d="M0.99482,17.244c-0.66321-1.658-0.99482-2.985-0.99482-4.643,0-1.99,0.33161-3.316,0.99482-4.974,1.294-3.1611,3.7668-5.4559,6.6322-6.6322,1.3264-0.66322,2.984-0.99482,4.642-0.99482s3.3161,0.3316,4.9741,0.99482c1.658,0.66321,2.9845,1.658,3.9793,2.6528,0.99482,0.99482,1.9896,2.3212,2.6529,3.9793,0.66321,1.658,0.99482,2.9845,0.99482,4.9741,0,2.3212-0.66322,4.6425-2.3212,6.9637l6.4116,6.4131c0.6897,1.0716,0.15547,2.2619-0.44266,2.8718-0.89179,0.84394-2.0686,0.88212-2.9845,0l-5.9689-6.3005c-2.3212,1.658-4.6425,2.3212-7.2954,2.3212-1.658,0-3.3161-0.3316-4.6425-0.99482-3.2475-1.4584-5.4373-3.6717-6.6321-6.6321zm5.6373-10.28c-1.3264,1.3264-2.3212,3.3161-2.3212,5.6373,0,1.9896,0.99482,3.9793,2.3212,5.3057,1.658,1.658,3.6477,2.3212,5.6373,2.3212,4.4439-0.19381,7.9046-3.4567,7.9586-7.627-0.17555-4.7187-3.7847-7.912-7.9586-7.9586-1.9896,0-3.9793,0.66321-5.6373,2.3212" fill-rule="nonzero" fill="#000"/></svg>
