<?xml version="1.0" encoding="UTF-8" standalone="no"?>
<!-- Generator: Adobe Illustrator 17.1.0, SVG Export Plug-In . SVG Version: 6.00 Build 0)  -->

<svg
   xmlns:dc="http://purl.org/dc/elements/1.1/"
   xmlns:cc="http://creativecommons.org/ns#"
   xmlns:rdf="http://www.w3.org/1999/02/22-rdf-syntax-ns#"
   xmlns:svg="http://www.w3.org/2000/svg"
   xmlns="http://www.w3.org/2000/svg"
   xmlns:sodipodi="http://sodipodi.sourceforge.net/DTD/sodipodi-0.dtd"
   xmlns:inkscape="http://www.inkscape.org/namespaces/inkscape"
   id="Layer_1"
   enable-background="new 0 0 612 792"
   xml:space="preserve"
   viewBox="0 0 763.38639 598.77737"
   height="100%"
   width="100%"
   version="1.1"
   y="0px"
   x="0px"
   inkscape:version="0.48.5 r10040"
   sodipodi:docname="softdev.svg"><defs
   id="defs18" /><sodipodi:namedview
   pagecolor="#ffffff"
   bordercolor="#666666"
   borderopacity="1"
   objecttolerance="10"
   gridtolerance="10"
   guidetolerance="10"
   inkscape:pageopacity="0"
   inkscape:pageshadow="2"
   inkscape:window-width="1366"
   inkscape:window-height="716"
   id="namedview16"
   showgrid="false"
   inkscape:zoom="0.4894327"
   inkscape:cx="373.64253"
   inkscape:cy="343.53779"
   inkscape:window-x="-8"
   inkscape:window-y="-8"
   inkscape:window-maximized="1"
   inkscape:current-layer="g3924"
   fit-margin-top="10"
   fit-margin-left="10"
   fit-margin-right="10"
   fit-margin-bottom="10" /><metadata
   id="metadata29"><rdf:RDF><cc:Work
       rdf:about=""><dc:format>image/svg+xml</dc:format><dc:type
         rdf:resource="http://purl.org/dc/dcmitype/StillImage" /><dc:title /></cc:Work></rdf:RDF></metadata>

<g
   id="g3883"
   transform="matrix(0.3528232,0,0,0.3528232,226.17834,61.233408)"
   style="fill:#1f4a83;fill-opacity:1"><g
     id="g3835"
     style="fill:#1f4a83;fill-opacity:1">
	<g
   id="g3837"
   style="fill:#1f4a83;fill-opacity:1">
		<g
   id="g3839"
   style="fill:#1f4a83;fill-opacity:1">
			
			
			
		<g
   id="g3924"><g
     id="g3005"
     transform="matrix(0.97117791,-0.23835575,0.23835575,0.97117791,-142.94125,182.21755)"><path
       id="path3841"
       d="m 639.12402,1364.3272 v -0.7556 -178.8016 c -23.18249,10.6372 -48.57493,16.2767 -74.38574,16.2767 -24.26684,0 -47.81219,-4.8027 -69.98291,-14.273 -21.39232,-9.1401 -40.55191,-22.2006 -56.94231,-38.8186 -33.76125,-34.2309 -51.98735,-79.5784 -51.32137,-127.6852 0.64464,-46.54141 19.25209,-90.40186 52.39718,-123.5014 33.14365,-33.10097 77.02829,-51.65008 123.57826,-52.23495 0.75989,-0.0128 1.51268,-0.0157 2.27257,-0.0157 25.81366,0 51.20326,5.6423 74.38717,16.27656 l 0.17361,-178.04879 H 426.03042 c 5.167,-9.02198 12.79867,-20.25817 21.56451,-33.05116 16.95106,-24.73928 29.5747,-53.35771 29.16773,-85.76994 -0.91928,-73.09648 -60.54541,-132.80658 -133.64189,-133.81835 -0.63752,-0.009 -1.285,-0.0128 -1.92109,-0.0128 -74.87953,-0.006 -135.57294,60.69483 -135.57294,135.57294 0,31.68932 12.43296,59.68733 29.09373,83.92001 8.10128,11.78264 16.47862,24.13021 21.64846,33.15931 H 57.331967 C 25.89594,682.74563 0.411,708.23056 0.411,739.66659 v 567.73691 c 0,31.4375 25.48494,56.9209 56.920967,56.9209 l 581.792053,0 0,0 z"
       inkscape:connector-curvature="0"
       style="fill:#1f4a83;fill-opacity:1" /><path
       id="path3843"
       d="m 1184.767,724.26951 c 10.6357,23.18248 16.2766,48.57493 16.2766,74.38574 0,47.61865 -18.5406,92.38557 -52.208,126.05432 -33.6687,33.66876 -78.4356,52.20792 -126.0543,52.20792 -0.8296,0 -1.6749,-0.006 -2.5145,-0.0171 -46.54284,-0.64464 -90.40043,-19.2521 -123.50282,-52.39576 -33.09955,-33.14365 -51.65009,-77.02971 -52.23496,-123.57257 -0.33156,-26.6262 5.30646,-52.80558 16.25521,-76.66543 H 724.68051 703.33514 681.78913 l 0.0257,213.68131 c -7.53918,-4.31603 -21.49904,-13.71368 -34.34611,-22.57343 -23.79723,-16.41743 -51.58748,-28.16591 -82.73463,-28.16591 -0.58059,0 -1.15692,0.003 -1.74178,0.0113 -73.09648,0.91927 -132.80515,60.54682 -133.81835,133.6419 -0.34721,25.0438 6.10336,48.5522 17.6142,68.8089 23.31198,41.0173 67.39442,68.6866 117.94593,68.6866 31.14715,0 58.29845,-12.7077 82.72894,-28.166 15.05275,-9.5228 26.80977,-18.2602 34.34895,-22.5762 v 1.0032 254.9547 h 0.17362 21.34535 21.34537 581.79348 c 31.4374,0 56.921,-25.4849 56.921,-56.921 V 724.26951 H 1184.767 z"
       inkscape:connector-curvature="0"
       style="fill:#1f4a83;fill-opacity:1" /><path
       id="path3845"
       d="M 1306.6461,0 H 681.98836 v 261.50347 c 0,0 22.89361,-19.81988 30.2108,-25.0125 23.48986,-19.52816 53.6779,-31.27665 86.60952,-31.27665 75.5142,0 136.6089,61.73932 135.56298,137.49545 -1.01177,73.09505 -60.72187,132.72261 -133.81835,133.64046 -0.5806,0.007 -1.16404,0.0113 -1.74605,0.0113 -32.9359,0 -63.11966,-11.74706 -86.60953,-31.27665 -7.32145,-5.19119 -30.20937,-25.01107 -30.20937,-25.01107 v 261.5063 h 42.69072 213.26863 c -1.97658,4.04282 -13.4063,21.37525 -22.74846,34.57096 -16.96387,23.95804 -28.37937,52.52951 -27.98377,84.25014 0.91928,73.09364 60.54683,132.80231 133.64192,133.81693 0.6375,0.009 1.2835,0.0142 1.9239,0.0142 35.0576,0 67.0059,-13.30811 91.0721,-35.14015 27.3363,-24.80474 44.4994,-60.61372 44.4994,-100.43421 0,-31.06746 -11.7087,-58.78227 -28.0336,-82.5596 -10.398,-15.14524 -18.2559,-26.77703 -22.4638,-34.10419 -0.084,-0.1423 -0.1608,-0.27322 -0.2434,-0.41552 h 252.0646 3.8919 V 657.36175 56.920967 C 1363.5672,25.48494 1338.0836,0 1306.6461,0 z"
       inkscape:connector-curvature="0"
       style="fill:#1f4a83;fill-opacity:1" /></g><path
     style="fill:#1f4a83;fill-opacity:1"
     inkscape:connector-curvature="0"
     d="m -610.91249,34.562138 129.73554,419.355422 175.55673,-54.3118 c 0,0 -18.06059,-11.25291 -23.06629,-15.08675 -17.98859,-11.71378 -32.14554,-29.54005 -38.98513,-51.64825 -15.68359,-50.69541 13.07546,-104.53317 64.15052,-119.56484 49.28149,-14.50191 101.71286,13.19955 117.5105,62.08124 0.12631,0.388 0.2494,0.77909 0.37028,1.16982 6.84047,22.11106 5.22314,44.81426 -3.00916,64.63997 -1.96494,5.99348 -10.51712,25.47537 -10.51712,25.47537 l 175.559162,-54.31255 -8.86646,-28.65983 -44.29389,-143.17496 c 3.12458,0.4873 17.1343,4.56072 27.93334,8.09182 19.60716,6.41259 41.15911,8.14221 62.37214,1.28856 48.87947,-15.79801 76.57999,-68.229074 62.08,-117.511171 -0.12663,-0.429766 -0.25579,-0.865046 -0.38879,-1.294943 -7.28114,-23.5354522 -22.85071,-42.219546 -42.50566,-53.841747 -22.32981,-13.200125 -49.9343,-17.285139 -76.66723,-9.014802 -20.85669,6.452415 -37.0309,20.068962 -49.60292,35.9668108 -8.007992,10.1261092 -14.184802,17.8172472 -18.229862,22.1639052 -0.0782,0.08584 -0.14989,0.164748 -0.22845,0.249577 l -52.35146,-169.22012 -0.80829,-2.61273 -16.25905,5.03004 -403.09765,124.705898 c -21.10384,6.5299218 -32.92009,28.931015 -26.39084,50.036072 z"
     id="path3845-1" /></g></g>
	</g>
</g><g
     id="g3847"
     style="fill:#1f4a83;fill-opacity:1">
</g><g
     id="g3849"
     style="fill:#1f4a83;fill-opacity:1">
</g><g
     id="g3851"
     style="fill:#1f4a83;fill-opacity:1">
</g><g
     id="g3853"
     style="fill:#1f4a83;fill-opacity:1">
</g><g
     id="g3855"
     style="fill:#1f4a83;fill-opacity:1">
</g><g
     id="g3857"
     style="fill:#1f4a83;fill-opacity:1">
</g><g
     id="g3859"
     style="fill:#1f4a83;fill-opacity:1">
</g><g
     id="g3861"
     style="fill:#1f4a83;fill-opacity:1">
</g><g
     id="g3863"
     style="fill:#1f4a83;fill-opacity:1">
</g><g
     id="g3865"
     style="fill:#1f4a83;fill-opacity:1">
</g><g
     id="g3867"
     style="fill:#1f4a83;fill-opacity:1">
</g><g
     id="g3869"
     style="fill:#1f4a83;fill-opacity:1">
</g><g
     id="g3871"
     style="fill:#1f4a83;fill-opacity:1">
</g><g
     id="g3873"
     style="fill:#1f4a83;fill-opacity:1">
</g><g
     id="g3875"
     style="fill:#1f4a83;fill-opacity:1">
</g></g></svg>