<?xml version="1.0" encoding="UTF-8" standalone="no"?>
<!-- Generator: Adobe Illustrator 17.1.0, SVG Export Plug-In . SVG Version: 6.00 Build 0)  -->
<svg id="Layer_1" xmlns:rdf="http://www.w3.org/1999/02/22-rdf-syntax-ns#" xmlns="http://www.w3.org/2000/svg" enable-background="new 0 0 612 792" xml:space="preserve" viewBox="0 0 157.73682 155.9" height="100%" width="100%" version="1.1" y="0px" x="0px" xmlns:cc="http://creativecommons.org/ns#" xmlns:xlink="http://www.w3.org/1999/xlink" xmlns:dc="http://purl.org/dc/elements/1.1/"><metadata id="metadata25"><rdf:RDF><cc:Work rdf:about=""><dc:format>image/svg+xml</dc:format><dc:type rdf:resource="http://purl.org/dc/dcmitype/StillImage"/><dc:title/></cc:Work></rdf:RDF></metadata>
<g id="g3" fill="#1f4a83" transform="matrix(2.2960236,0,0,2.2960236,-622.2224,-831.16054)">
	<g id="g5">
		<defs id="defs7">
			<rect id="SVGID_1_" y="362" x="271" height="68" width="68.9"/>
		</defs>
		<clipPath id="SVGID_2_">
			<use id="use11" xlink:href="#SVGID_1_" height="792" width="612" y="0" x="0" overflow="visible"/>
		</clipPath>
		<path id="path13" fill="#1f4a83" d="m291.6,369.6c0,4.2-3.4,7.6-7.6,7.6s-7.6-3.4-7.6-7.6,3.4-7.6,7.6-7.6,7.6,3.4,7.6,7.6z" clip-path="url(#SVGID_2_)"/>
		<path id="path15" fill="#1f4a83" d="m334.4,369.6c0,4.2-3.4,7.6-7.6,7.6s-7.6-3.4-7.6-7.6,3.4-7.6,7.6-7.6,7.6,3.4,7.6,7.6z" clip-path="url(#SVGID_2_)"/>
	</g>
	<path id="path17" d="m332.5,376.4c-1.5,1.4-3.5,2.3-5.7,2.3s-4.2-0.9-5.7-2.3c-3.2,0.9-5.8,3.3-6.8,6.5-2.8-0.5-5.8-0.8-8.9-0.8s-6.1,0.3-8.9,0.8c-1-3.2-3.6-5.7-6.8-6.5-1.5,1.4-3.5,2.3-5.7,2.3s-4.2-0.9-5.7-2.3c-4.2,1.1-7.3,4.9-7.3,9.4v7.9,0.1l0.5,0.2c1.7,0.5,3.3,0.9,4.9,1.3-0.7,1.5-1.1,3.1-1.1,4.8,0,7.2,7.1,13.4,17.3,16.2-0.4,1-0.6,2.2-0.6,3.3v7.9,0.1l0.5,0.2c5.1,1.6,9.6,2.1,13.3,2.1,7.2,0,11.3-2,11.6-2.2l0.5-0.3h0.1v-7.9c0-1.1-0.2-2.2-0.5-3.2,10.5-2.8,17.9-9.1,17.9-16.4,0-1.6-0.3-3.1-1-4.6,2.9-0.6,4.6-1.4,4.8-1.5l0.5-0.3v-7.9c0-4.3-3-8.1-7.2-9.2zm0.8,23.6c0,6.5-6.9,12-16.7,14.5-1.3-2.1-3.4-3.7-5.8-4.4-1.5,1.4-3.5,2.3-5.7,2.3s-4.2-0.9-5.7-2.3c-2.4,0.6-4.4,2.2-5.8,4.2-9.6-2.5-16.2-8-16.2-14.4,0-1.5,0.4-3,1.1-4.4,2.3,0.4,4.4,0.5,6.3,0.5,7.2,0,11.3-2,11.6-2.2l0.5-0.3h0.1v-7.9-0.9c2.7-0.5,5.5-0.7,8.5-0.7,2.9,0,5.8,0.3,8.5,0.7v0.9,7.9,0.1l0.5,0.2c5.1,1.6,9.6,2.1,13.2,2.1,1.8,0,3.3-0.1,4.7-0.3,0.6,1.6,0.9,3,0.9,4.4z"/>
	<path id="path19" d="m312.7,403.4c0,4.2-3.4,7.6-7.6,7.6s-7.6-3.4-7.6-7.6,3.4-7.6,7.6-7.6,7.6,3.4,7.6,7.6z"/>
</g>
</svg>
