<?xml version="1.0" encoding="UTF-8" standalone="no"?>
<!-- Generator: Adobe Illustrator 17.1.0, SVG Export Plug-In . SVG Version: 6.00 Build 0)  -->
<svg id="Layer_1" xmlns:rdf="http://www.w3.org/1999/02/22-rdf-syntax-ns#" xmlns="http://www.w3.org/2000/svg" enable-background="new 0 0 612 792" xml:space="preserve" viewBox="0 0 629.3 301.3" height="100%" width="100%" version="1.1" y="0px" x="0px" xmlns:cc="http://creativecommons.org/ns#" xmlns:xlink="http://www.w3.org/1999/xlink" xmlns:dc="http://purl.org/dc/elements/1.1/"><metadata id="metadata29"><rdf:RDF><cc:Work rdf:about=""><dc:format>image/svg+xml</dc:format><dc:type rdf:resource="http://purl.org/dc/dcmitype/StillImage"/><dc:title/></cc:Work></rdf:RDF></metadata>
<g id="g3" fill="#1f4a83" transform="translate(9,-245.1)">
	<path id="path5" d="m443.7,520.5,0,0c-0.2-1.3-0.5-2.6-0.9-3.8-3-11.7-10-33-13.2-42.6-0.3-1.7-0.9-3.3-1.6-4.8,0,0-5.1-7.7-9-10,0,0-1.9-1-2.2-1.1-7.6-3.6-31.1-13-31.1-13-11.8-5.1-23.9-9.4-36.3-13.8-2.2,9.2-23.3,70.5-26.6,79l-2.6-57c0.9-1.4,1.5-2.9,2.2-4.3l8.8-17.4c-6.2,5.1-15.4,8.4-25.8,8.4-10.2,0-19.2-3.1-25.4-8.1l8.6,17c0.7,1.4,1.4,3,2.2,4.3l-2.6,57c-3.4-8.5-24.4-69.8-26.6-79-12.4,4.4-24.6,8.8-36.3,13.8,0,0-23.5,9.4-31.1,13-0.2,0.2-1.9,1-2.2,1.1,0,0-7,5.8-9,9.9,0,0-1.3,3.1-1.6,4.8-3.1,9.5-10.1,30.8-13.2,42.6-0.4,1.2-0.7,2.5-0.9,3.8-0.2,1.1-0.2,2.3-0.2,3.4,0,12.6,10.2,22.7,22.7,22.7h231.8c12.6,0,22.7-10.2,22.7-22.7-0.4-0.9-0.5-2.1-0.6-3.2z"/>
	<g id="g7">
		<defs id="defs9">
			<rect id="SVGID_1_" y="245" x="-9" height="302" width="629.9"/>
		</defs>
		<clipPath id="SVGID_2_">
			<use id="use13" xlink:href="#SVGID_1_" height="792" width="612" y="0" x="0" overflow="visible"/>
		</clipPath>
		<path id="path15" fill="#1f4a83" d="m364.6,326.1c0-4,0.8-18.6,0.8-21.8,0-32.4-26.3-58.7-58.7-58.7h-2.6c-32.4,0-58.7,26.3-58.7,58.7,0,3.4,0.8,17.8,0.8,21.8-1.4,0.1-14.6-3.1-13.1,12.6,3,33.4,15.8,27,16.1,27,6.2,20.2,16,33,25.5,41.1,14.9,12.7,29.3,14.2,29.6,14.2h2.4c0.2,0,14.6-1.4,29.4-14,9.6-8.2,19.4-21,25.7-41.3,0.4,0,13.1,6.5,16.1-27,1.3-15.7-11.8-12.5-13.3-12.6z" clip-path="url(#SVGID_2_)"/>
		<path id="path17" fill="#1f4a83" d="m165.5,462.6,0.2-0.5,0.2-0.5c1.8-3.8,4.6-7.6,9-11.9,1-0.9,3.8-3.8,6.2-5.4,0.2-0.1,0.3-0.2,0.5-0.3,0.1-0.1,0.2-0.2,0.3-0.2,1.6-1,3.5-1.9,4.2-2.2,5.2-2.5,16.4-7,24.2-10.2-0.2-0.1-0.5-0.2-0.8-0.4-0.2-0.1-0.5-0.2-0.7-0.3-6.6-3.1-27.1-11.4-27.1-11.4-10.2-4.4-20.9-8.2-31.7-12.1-1.9,8.1-20.3,61.4-23.2,68.9l-2.3-49.7c0.8-1.2,1.3-2.5,1.9-3.8l7.7-15.1c-5.4,4.5-13.4,7.4-22.5,7.4-8.8,0-16.7-2.7-22.2-7l7.5,14.8c0.6,1.3,1.1,2.6,1.9,3.8l-2.3,49.7c-2.9-7.4-21.3-60.8-23.2-68.9-10.8,3.8-21.4,7.6-31.7,12.1,0,0-20.5,8.2-27.1,11.4-0.2,0.1-0.5,0.2-0.7,0.3-0.6,0.3-1,0.5-1.2,0.6-3.4,2-6.2,5-7.8,8.6v0.1c-0.6,1.3-1.1,2.7-1.4,4.2-2.7,8.3-8.8,26.9-11.4,37-0.3,1-0.6,2.2-0.8,3.3-0.2,1-0.2,2-0.2,3,0,11,8.9,19.8,19.8,19.8h140.7c3.4-11.8,8.7-28.5,12.1-38.5,0.3-2.5,1.3-5.2,1.9-6.6z" clip-path="url(#SVGID_2_)"/>
	</g>
	<path id="path19" d="m62.4,349.8c5.4,17.5,13.9,28.7,22.2,35.8,13,11.1,25.5,12.3,25.8,12.3h2.1c0.2,0,12.7-1.2,25.6-12.2,8.4-7.1,16.9-18.3,22.4-36,0.3,0,11.4,5.7,14.1-23.4,1.2-13.8-10.2-11-11.4-11,0-3.5,0.7-16.2,0.7-19,0-28.2-23-51.2-51.2-51.2h-2.2c-28.2,0-51.2,23-51.2,51.2,0,2.9,0.7,15.6,0.7,19-1.3,0.1-12.7-2.7-11.4,11,2.4,29.2,13.5,23.5,13.8,23.5z"/>
	<path id="path21" d="m619.7,467.9c-0.2-1.8-0.4-3.7-0.6-5.5,0,0-1-5.9-1.3-6.9-2.4-10.5-8.9-18.1-17.7-24.1-1.7-1.1-3.4-2.1-5-3-2.2-1.2-36.6-12.5-37.5-12.8,0.2,1.2,0.3,2.5,0.4,3.9,4.8,3.4,18.9,15.5,12.5,38.2,0,0-10.2-12.1-20.5-13.6-9.8,17.1-26.6,38.9-35.6,44.6-9-5.7-25.8-27.4-35.6-44.6-10.3,1.5-20.5,13.6-20.5,13.6-6.4-22.7,7.7-34.8,12.5-38.2,0.1-1.4,0.2-2.7,0.4-3.9-0.9,0.3-35.3,11.6-37.5,12.8-1.8,0.9-3.4,1.8-5,3-3.4,2.3-6.5,4.9-9.1,7.8,2.1,0.9,3.8,1.7,5.3,2.3,0.6,0.2,2.2,1,3.8,2,3.6,2.2,7.1,5.4,11,10.2,3.8,4.9,5.1,7.2,5.8,8.7,1,2.2,1.8,4.5,2.3,6.8,3.3,10,8.7,26.6,12,38.4h134.2c7.9,0,14.6-2.4,20.2-8.3,4.3-4.6,5.6-10.2,5.9-16.2,0.1-1,0.2-5.6,0.2-5.6s-0.6-9.5-0.6-9.6z"/>
	<path id="path23" d="m452,359.9c0.8,3,1.4,5.8,1.4,8.4,0,0.9-0.1,1.8-0.2,2.6-0.7,2.5-6,11-6.9,12.4,9.4,10.1,21.7,12.4,33.8,15,3.6,0.7,7.3,1.2,11.2,1.7l3.8,0.7-6.2,18.1s-0.2,26.4,25.4,42.5h0.2c25.5-16.1,25.4-42.5,25.4-42.5l-6.2-18.1,3.8-0.7c3.9-0.5,7.6-1,11.2-1.7,12.2-2.6,24.6-4.9,33.8-15-0.9-1.4-6.2-9.9-6.9-12.4-0.2-0.9-0.2-1.8-0.2-2.6,0-2.6,0.5-5.4,1.4-8.4,0.8-2.8,1.7-5.6,2.6-8.5,4.2-9.2,6.4-19.4,6.4-30.2,0-39.9-31.8-72.4-71.2-73.1h-0.2c-39.4,0.7-71.2,33.2-71.2,73.1,0,10.7,2.3,21,6.4,30.2,0.7,2.9,1.6,5.7,2.4,8.5z"/>
</g>
</svg>
